<?xml version="1.0" encoding="utf-8"?>
<!-- Generator: Adobe Illustrator 19.2.1, SVG Export Plug-In . SVG Version: 6.00 Build 0)  -->
<svg version="1.1" id="cloudSync_x5F_32" xmlns="http://www.w3.org/2000/svg" xmlns:xlink="http://www.w3.org/1999/xlink" x="0px"
	 y="0px" viewBox="0 0 32 32" style="enable-background:new 0 0 32 32;" xml:space="preserve">
<style type="text/css">
	.st0{fill:#FFFFFF;}
</style>
<polygon class="st0" points="20.5,24.2 16.6,28 12.5,24.2 15.5,24.2 15.5,14.8 17.7,14.8 17.7,24.2 "/>
<path class="st0" d="M24.9,9.9c-0.5-3.4-3.4-6-6.9-6c-2.5,0-4.8,1.4-6,3.5c-0.2,0-0.3,0-0.5,0c-2.9,0-5.3,2.2-5.6,5
	c-1.3,0.8-2.2,2.2-2.2,3.9c0,2.5,2,4.6,4.6,4.6h4.3v-2.4c-2.5,0-4.1,0-4.3,0c-1.2,0-2.1-1-2.1-2.1s1-2.1,2.1-2.1c0.1,0,0.1,0,0.2,0
	c-0.1-0.3-0.2-0.7-0.2-1.1c0-1.8,1.4-3.2,3.2-3.2c0.7,0,1.4,0.3,1.9,0.7c0,0,0-0.1,0-0.1c0.3-2.2,2.2-4,4.5-4c2.5,0,4.5,2,4.5,4.4
	c0,0.3,0.1,0.6,0.1,0.8c0,0.1,0,0.2,0,0.3c0,0,0,0,0.1,0c1.8,0,3.2,1.4,3.2,3.2c0,1.5-1,2.7-2.4,3.1c-0.3,0.1-0.5,0.2-0.8,0.2v0
	c0,0-0.2,0-2.3,0v2.4c0,0,0.3,0,1.3,0c2.1,0,3.4-0.7,3.4-0.7c1.9-0.9,3.2-2.9,3.2-5.1C28.3,12.7,26.9,10.8,24.9,9.9z"/>
</svg>
