<?xml version="1.0" encoding="utf-8"?>
<!-- Generator: Adobe Illustrator 19.1.0, SVG Export Plug-In . SVG Version: 6.00 Build 0)  -->
<svg version="1.1" id="Layer_1" xmlns="http://www.w3.org/2000/svg" xmlns:xlink="http://www.w3.org/1999/xlink" x="0px" y="0px"
	 viewBox="0 0 175 175" style="enable-background:new 0 0 175 175;" xml:space="preserve">
<style type="text/css">
	.st0{fill:none;}
	.st1{fill:#D8D8D8;}
</style>
<rect class="st0" width="175" height="175"/>
<g>
	<path class="st1" d="M87.5,56.1c-1.7,0-3.2,0.9-4.1,2.3l-31.1,53.5c-0.8,1.4-0.8,3.2,0,4.7c0.8,1.4,2.4,2.3,4.1,2.3h62.1
		c1.7,0,3.2-0.9,4.1-2.3c0.8-1.4,0.9-3.2,0-4.7L91.5,58.4C90.7,57,89.2,56.1,87.5,56.1L87.5,56.1z M87.5,57.7c1.1,0,2.2,0.6,2.7,1.5
		l31.1,53.5c0.5,0.9,0.5,2.2,0,3.1c-0.5,0.9-1.6,1.5-2.7,1.5H56.5c-1.1,0-2.2-0.6-2.7-1.5c-0.5-0.9-0.6-2.2,0-3.1l31.1-53.5
		C85.4,58.3,86.4,57.7,87.5,57.7L87.5,57.7z M87.4,76.7c-0.4,0.1-0.7,0.4-0.7,0.8v23.9c0,0.4,0.4,0.8,0.8,0.8c0.4,0,0.8-0.4,0.8-0.8
		V77.6C88.3,77.1,87.9,76.7,87.4,76.7C87.4,76.7,87.4,76.7,87.4,76.7L87.4,76.7z M87.5,106.8c-1,0-1.7,0.8-1.7,1.7
		c0,1,0.8,1.7,1.7,1.7c1,0,1.8-0.8,1.8-1.7C89.3,107.6,88.5,106.8,87.5,106.8L87.5,106.8z"/>
</g>
</svg>
