<svg id="Alert_140_N" xmlns="http://www.w3.org/2000/svg" width="140" height="140" viewBox="0 0 140 140">
  <title>Alert_140_N</title>
  <path d="M71.028,40.872v2a2.153,2.153,0,0,1,1.347,1.246c1.464,2.436,15.735,28.148,23.4,41.961,4.047,7.291,4.667,8.406,4.738,8.523a1.037,1.037,0,0,1,.014.991A0.915,0.915,0,0,1,99.59,96H42.41a0.915,0.915,0,0,1-.938-0.408,1.037,1.037,0,0,1,.014-0.99c0.071-.117.691-1.232,4.738-8.523,7.667-13.813,21.938-39.525,23.4-41.961a2.153,2.153,0,0,1,1.347-1.246h0.051l0.006-2m0,0H70.972c-1.071,0-2.152.7-3.061,2.216-2.019,3.359-27.9,50.1-28.134,50.474A2.9,2.9,0,0,0,42.41,98H99.59a2.9,2.9,0,0,0,2.633-4.438c-0.231-.379-26.116-47.115-28.134-50.474-0.909-1.512-1.99-2.216-3.061-2.216h0Z" fill="#fff" opacity="0.5"/>
  <circle cx="71" cy="87" r="2" fill="#fff" opacity="0.5"/>
  <path d="M71,59a2,2,0,0,0-2,2V80a2,2,0,0,0,4,0V61A2,2,0,0,0,71,59Z" fill="#fff" opacity="0.5"/>
  <rect id="ToDelete" width="140" height="140" opacity="0"/>
</svg>
