<svg id="S_Save_Md_N_D_2x" data-name="S_Save_Md_N_D@2x" xmlns="http://www.w3.org/2000/svg" width="36" height="36" viewBox="0 0 36 36">
  <defs>
    <style>
      .fill {
        fill: #fff;
        fill-rule: evenodd;
        opacity: 0.65;
      }

      
    </style>
  </defs>
  <title>S_Save_Md_N_D@2x</title>
  <path class="fill" d="M23.586,15H20V5.5A0.5,0.5,0,0,0,19.5,5h-3a0.5,0.5,0,0,0-.5.5V15H12.414a1,1,0,0,0-.707,1.707L18,23.4l6.293-6.693A1,1,0,0,0,23.586,15Z"/>
  <path class="fill" d="M33,21H24l-6,6.4L12,21H3a1,1,0,0,0-1,1v8a1,1,0,0,0,1,1H33a1,1,0,0,0,1-1V22A1,1,0,0,0,33,21ZM7,27H5a1,1,0,0,1-1-1V24a1,1,0,0,1,1-1H7a1,1,0,0,1,1,1v2A1,1,0,0,1,7,27Z"/>
  </svg>