<svg id="S_Alert_Sm_N_D_2x" data-name="S_Alert_Sm_N_D@2x" xmlns="http://www.w3.org/2000/svg" width="32" height="32" viewBox="0 0 32 32">
  <defs>
    <style>
      .cls-1 {
        opacity: 0.65;
      }

      .yellow {
        fill: #f4c500;
      }

      
    </style>
  </defs>
  <title>S_Alert_Sm_N_D@2x</title>
  <path class="cls-1" d="M16,4a0.594,0.594,0,0,1,.526.311L29.4,26.611a0.6,0.6,0,0,1-.526.889H3.125A0.6,0.6,0,0,1,2.6,26.611l12.875-22.3A0.594,0.594,0,0,1,16,4Zm0-1.5a2.1,2.1,0,0,0-1.841,1.089L1.3,25.861A2.1,2.1,0,0,0,3.125,29h25.75a2.1,2.1,0,0,0,1.841-3.111L17.825,3.562A2.087,2.087,0,0,0,16,2.5Z"/>
  <rect class="cls-1" x="14" y="9" width="4" height="10" rx="1" ry="1"/>
  <path class="yellow" d="M29.4,26.611L16.526,4.313a0.6,0.6,0,0,0-1.052,0L2.6,26.611a0.6,0.6,0,0,0,.526.889h25.75A0.6,0.6,0,0,0,29.4,26.611ZM18,24a1,1,0,0,1-1,1H15a1,1,0,0,1-1-1V22a1,1,0,0,1,1-1h2a1,1,0,0,1,1,1v2Zm0-6a1,1,0,0,1-1,1H15a1,1,0,0,1-1-1V10a1,1,0,0,1,1-1h2a1,1,0,0,1,1,1v8Z"/>
  <rect class="cls-1" x="14" y="21" width="4" height="4" rx="1" ry="1"/>
  </svg>