<svg id="S_Alert_Xs_N_D_2x" data-name="S_Alert_Xs_N_D@2x" xmlns="http://www.w3.org/2000/svg" width="26" height="26" viewBox="0 0 26 26">
  <defs>
    <style>
      .cls-1 {
        opacity: 0.6;
      }

      .yellow {
        fill: #f4c500;
      }

      .cls-2 {
        opacity: 0.651;
        isolation: isolate;
      }

      
    </style>
  </defs>
  <title>S_Alert_Xs_N_D@2x</title>
  <path class="cls-1" d="M25.879,22.5C25.353,21.512,13.9.574,13.9,0.574a1.017,1.017,0,0,0-1.806,0L0.116,22.515A1.017,1.017,0,0,0,1.019,24s22.837-.006,23.968-0.01A1.013,1.013,0,0,0,25.879,22.5Zm-2.8-.042H2.912a0.649,0.649,0,0,1-.576-0.947L12.421,3.176a0.649,0.649,0,0,1,1.152,0L23.658,21.509A0.649,0.649,0,0,1,23.082,22.456Z"/>
  <path class="yellow" d="M23.658,21.509L13.573,3.176a0.649,0.649,0,0,0-1.152,0L2.336,21.509a0.649,0.649,0,0,0,.576.947H23.082A0.649,0.649,0,0,0,23.658,21.509Zm-9.364-1.164a0.32,0.32,0,0,1-.324.316H12.024a0.32,0.32,0,0,1-.324-0.316v-1.9a0.32,0.32,0,0,1,.324-0.316H13.97a0.32,0.32,0,0,1,.324.316v1.9Zm0-3.89a0.32,0.32,0,0,1-.324.316H12.024a0.32,0.32,0,0,1-.324-0.316V8.874a0.32,0.32,0,0,1,.324-0.316H13.97a0.32,0.32,0,0,1,.324.316v7.581Z"/>
  <path class="cls-2" d="M14.294,20.345a0.32,0.32,0,0,1-.324.316H12.024a0.32,0.32,0,0,1-.324-0.316v-1.9a0.32,0.32,0,0,1,.324-0.316H13.97a0.32,0.32,0,0,1,.324.316v1.9Zm0-3.89a0.32,0.32,0,0,1-.324.316H12.024a0.32,0.32,0,0,1-.324-0.316V8.874a0.32,0.32,0,0,1,.324-0.316H13.97a0.32,0.32,0,0,1,.324.316v7.581Z"/>
  </svg>