<svg id="S_Alert_Xl_N_D_2x" data-name="S_Alert_Xl_N_D@2x" xmlns="http://www.w3.org/2000/svg" width="64" height="64" viewBox="0 0 64 64">
  <defs>
    <style>
      .yellow {
        fill: #f4c500;
      }

      
    </style>
  </defs>
  <title>S_Alert_Xl_N_D@2x</title>
  <path class="yellow" d="M61.713,55.757l0.013-.019L34.653,2.186a2.949,2.949,0,0,0-5.325.027L2.295,55.707l0.013,0.02a2.931,2.931,0,0,0,2.64,4.238L58.97,59.976A3.005,3.005,0,0,0,62,57,2.957,2.957,0,0,0,61.713,55.757ZM36,51a1,1,0,0,1-1,1H29a1,1,0,0,1-1-1V45a1,1,0,0,1,1-1h6a1,1,0,0,1,1,1v6Zm0-12a1,1,0,0,1-1,1H29a1,1,0,0,1-1-1V17a1,1,0,0,1,1-1h6a1,1,0,0,1,1,1V39Z"/>
  </svg>