<svg id="S_Alert_Xs_N_2x" data-name="S_Alert_Xs_N@2x" xmlns="http://www.w3.org/2000/svg" width="26" height="26" viewBox="0 0 26 26">
  <defs>
    <style>
      .fill {
        fill-rule: evenodd;
      }

      .cls-1, .fill {
        opacity: 0.65;
      }

      .yellow {
        fill: #f4c500;
      }

      
    </style>
  </defs>
  <title>S_Alert_Xs_N@2x</title>
  <path class="fill" d="M13,1.5a0.594,0.594,0,0,1,.526.311l10.9,19.8a0.6,0.6,0,0,1-.526.889H2.1a0.6,0.6,0,0,1-.526-0.889l10.9-19.8A0.594,0.594,0,0,1,13,1.5ZM13,0a2.1,2.1,0,0,0-1.841,1.089L0.276,20.861A2.1,2.1,0,0,0,2.1,24H23.9a2.1,2.1,0,0,0,1.841-3.111L14.825,1.061A2.087,2.087,0,0,0,13,0Z"/>
  <rect class="cls-1" x="11" y="6" width="4" height="8" rx="1" ry="1"/>
  <path class="yellow" d="M24.423,21.611l-10.9-19.8a0.6,0.6,0,0,0-1.052,0l-10.9,19.8A0.6,0.6,0,0,0,2.1,22.5H23.9A0.6,0.6,0,0,0,24.423,21.611ZM15,19a1,1,0,0,1-1,1H12a1,1,0,0,1-1-1V17a1,1,0,0,1,1-1h2a1,1,0,0,1,1,1v2Zm0-6a1,1,0,0,1-1,1H12a1,1,0,0,1-1-1V7a1,1,0,0,1,1-1h2a1,1,0,0,1,1,1v6Z"/>
  <rect class="cls-1" x="11" y="16" width="4" height="4" rx="1" ry="1"/>
  </svg>