<svg id="S_Alert_Md_N_D_2x" data-name="S_Alert_Md_N_D@2x" xmlns="http://www.w3.org/2000/svg" width="36" height="36" viewBox="0 0 36 36">
  <defs>
    <style>
      .cls-1 {
        opacity: 0.65;
      }

      .yellow {
        fill: #f4c500;
      }

      
    </style>
  </defs>
  <title>S_Alert_Md_N_D@2x</title>
  <path class="cls-1" d="M18,5a0.594,0.594,0,0,1,.526.311L32.4,29.611a0.6,0.6,0,0,1-.526.889H4.125A0.6,0.6,0,0,1,3.6,29.611l13.875-24.3A0.594,0.594,0,0,1,18,5Zm0-1.5a2.1,2.1,0,0,0-1.841,1.089L2.3,28.867A2.1,2.1,0,0,0,4.125,32h27.75a2.1,2.1,0,0,0,1.841-3.111L19.829,4.569A2.09,2.09,0,0,0,18,3.5Z"/>
  <path class="yellow" d="M32.4,29.611L18.526,5.313a0.6,0.6,0,0,0-1.052,0L3.6,29.611a0.6,0.6,0,0,0,.526.889h27.75A0.6,0.6,0,0,0,32.4,29.611ZM20,27a1,1,0,0,1-1,1H17a1,1,0,0,1-1-1V25a1,1,0,0,1,1-1h2a1,1,0,0,1,1,1v2Zm0-6a1,1,0,0,1-1,1H17a1,1,0,0,1-1-1V13a1,1,0,0,1,1-1h2a1,1,0,0,1,1,1v8Z"/>
  <rect class="cls-1" x="16" y="24" width="4" height="4" rx="1" ry="1"/>
  <rect class="cls-1" x="16" y="12" width="4" height="10" rx="1" ry="1"/>
  </svg>