<svg id="S_Close_Xs_N_2x" data-name="S_Close_Xs_N@2x" xmlns="http://www.w3.org/2000/svg" width="26" height="26" viewBox="0 0 26 26">
  <defs>
    <style>
      .fill {
        fill-rule: evenodd;
        opacity: 0.65;
      }

      
    </style>
  </defs>
  <title>S_Close_Xs_N@2x</title>
  <path class="fill" d="M13,2A11,11,0,1,0,24,13,11,11,0,0,0,13,2Zm6.354,16.647-0.707.707a1,1,0,0,1-1.414,0L13,15.121,8.768,19.354a1,1,0,0,1-1.414,0l-0.707-.707a1,1,0,0,1,0-1.414L10.879,13,6.646,8.768a1,1,0,0,1,0-1.414l0.707-.707a1,1,0,0,1,1.414,0L13,10.879l4.232-4.232a1,1,0,0,1,1.414,0l0.707,0.707a1,1,0,0,1,0,1.414L15.121,13l4.232,4.232A1,1,0,0,1,19.354,18.647Z"/>
  </svg>