<svg id="S_ClearEditControl_Xs_N_2x" data-name="S_ClearEditControl_Xs_N@2x" xmlns="http://www.w3.org/2000/svg" width="26" height="26" viewBox="0 0 26 26">
  <defs>
    <style>
      .fill {
        fill-rule: evenodd;
        opacity: 0.65;
      }

      
    </style>
  </defs>
  <title>S_ClearEditControl_Xs_N@2x</title>
  <path class="fill" d="M20.707,20L20,20.707a1,1,0,0,1-1.414,0L13,15.121,7.414,20.707a1,1,0,0,1-1.414,0L5.293,20a1,1,0,0,1,0-1.414L10.879,13,5.293,7.414A1,1,0,0,1,5.293,6L6,5.293a1,1,0,0,1,1.414,0L13,10.879l5.586-5.586a1,1,0,0,1,1.414,0L20.707,6a1,1,0,0,1,0,1.414L15.121,13l5.586,5.586A1,1,0,0,1,20.707,20Z"/>
  </svg>