<svg id="S_Close_5x7_N_2x" data-name="S_Close_5x7_N@2x" xmlns="http://www.w3.org/2000/svg" width="10" height="14" viewBox="0 0 10 14">
  <defs>
    <style>
      .fill {
        fill-rule: evenodd;
        opacity: 0.65;
      }

      
    </style>
  </defs>
  <title>S_Close_5x7_N@2x</title>
  <path class="fill" d="M0.9,12h0a0.9,0.9,0,0,0,.636-0.264L5,8.273l3.463,3.463A0.9,0.9,0,0,0,9.1,12h0a0.9,0.9,0,0,0,.9-0.9h0a0.9,0.9,0,0,0-.264-0.636L6.273,7,9.736,3.537A0.9,0.9,0,0,0,10,2.9h0A0.9,0.9,0,0,0,9.1,2h0a0.9,0.9,0,0,0-.636.264L5,5.727,1.537,2.264A0.9,0.9,0,0,0,.9,2h0a0.9,0.9,0,0,0-.9.9H0a0.9,0.9,0,0,0,.264.636L3.727,7,0.264,10.463A0.9,0.9,0,0,0,0,11.1H0A0.9,0.9,0,0,0,.9,12Z"/>
  </svg>