<svg id="S_CreativeCloud_N_2x" data-name="S_CreativeCloud_N@2x" xmlns="http://www.w3.org/2000/svg" width="72" height="72" viewBox="0 0 72 72">
  <defs>
    <style>
      .fill {
        fill-rule: evenodd;
        opacity: 0.65;
      }

      
    </style>
  </defs>
  <title>S_CreativeCloud_N@2x</title>
  <path class="fill" d="M30.23,19.21a20.336,20.336,0,0,1,3.59,1.86,17.057,17.057,0,1,1-1.44,25.4l-9.97-10a1.885,1.885,0,0,0-2.7,2.63L29.73,49.14A20.817,20.817,0,1,0,30.23,19.21Z"/>
  <path class="fill" d="M5.74,38.41A16.838,16.838,0,0,0,22.58,55.24h8.8a24.784,24.784,0,0,1-4.63-3.77H22.58a13.065,13.065,0,1,1,0-26.13,12.286,12.286,0,0,1,8.58,3.21l7.57,7.77a1.881,1.881,0,1,0,2.7-2.62l-7.58-7.78a15.9,15.9,0,0,0-11.28-4.34A16.824,16.824,0,0,0,5.74,38.41Z"/>
  <path class="fill" d="M44.5,59h-22a20.605,20.605,0,0,1,.08-41.21,21.07,21.07,0,0,1,3.49.3A24.577,24.577,0,1,1,44.5,59ZM68.08,24.44a25.644,25.644,0,0,0-42.42-7.51,21.17,21.17,0,0,0-3.08-.22,21.721,21.721,0,0,0-8.44,41.71A21.075,21.075,0,0,0,22.5,60h22a24.94,24.94,0,0,0,9.93-1.9A25.745,25.745,0,0,0,68.08,24.44Z"/>
  </svg>