<svg id="S_CreativeCloud_Sm_N_2x" data-name="S_CreativeCloud_Sm_N@2x" xmlns="http://www.w3.org/2000/svg" width="32" height="32" viewBox="0 0 32 32">
  <defs>
    <style>
      .fill {
        fill-rule: evenodd;
        opacity: 0.65;
      }

      
    </style>
  </defs>
  <title>S_CreativeCloud_Sm_N@2x</title>
  <path class="fill" d="M13.806,8.316a9.366,9.366,0,0,1,1.491.778,7.059,7.059,0,0,1,4.425-1.556A7.172,7.172,0,1,1,14.7,19.781l-4.144-4.209a0.775,0.775,0,0,0-1.106-.009,0.8,0.8,0,0,0-.019,1.116L13.6,20.9a8.585,8.585,0,0,0,6.122,2.569,8.757,8.757,0,0,0,0-17.512A8.587,8.587,0,0,0,13.806,8.316Z"/>
  <path class="fill" d="M3.616,16.388a7.044,7.044,0,0,0,7,7.078h3.666a10.8,10.8,0,0,1-1.931-1.584H10.619a5.494,5.494,0,0,1,0-10.987,5.1,5.1,0,0,1,3.572,1.35l3.159,3.262a0.775,0.775,0,0,0,1.106.019,0.8,0.8,0,0,0,.009-1.116l-3.15-3.272a6.579,6.579,0,0,0-4.7-1.828A7.038,7.038,0,0,0,3.616,16.388Z"/>
  <path class="fill" d="M19.881,26H10.394a9.756,9.756,0,0,1-3.853-.79C6.283,25.1,6.032,25,5.788,24.91A6.1,6.1,0,0,1,3.4,23.536a9.878,9.878,0,0,1-2.122-3.189,10.1,10.1,0,0,1,0-7.78A10.005,10.005,0,0,1,6.54,7.247a9.752,9.752,0,0,1,3.854-.791,9.946,9.946,0,0,1,1.153.064,11.535,11.535,0,0,1,16.558-.1,11.851,11.851,0,0,1,2.485,3.729h0A11.82,11.82,0,0,1,28.1,23.019a8.029,8.029,0,0,1-2.981,1.761c-0.236.1-.477,0.193-0.723,0.3A11.5,11.5,0,0,1,19.881,26ZM10.394,7.456a8.76,8.76,0,0,0-3.46.71A9,9,0,0,0,2.2,12.952a9.1,9.1,0,0,0,0,7.012,8.9,8.9,0,0,0,1.91,2.869,5.244,5.244,0,0,0,2.033,1.143c0.257,0.1.52,0.2,0.79,0.314A8.753,8.753,0,0,0,10.394,25h9.488a10.5,10.5,0,0,0,4.126-.841c0.25-.108.5-0.208,0.74-0.306a7.138,7.138,0,0,0,2.642-1.534,10.819,10.819,0,0,0,0-15.2,10.549,10.549,0,0,0-15.288.27,0.512,0.512,0,0,1-.441.156A8.678,8.678,0,0,0,10.394,7.456Z"/>
  </svg>