<svg id="S_Error_Xs_N_D_2x" data-name="S_Error_Xs_N_D@2x" xmlns="http://www.w3.org/2000/svg" width="26" height="26" viewBox="0 0 26 26">
  <defs>
    <style>
      .cls-1 {
        fill: #fff;
        fill-rule: evenodd;
      }

      .red {
        fill: #f53c3c;
      }

      
    </style>
  </defs>
  <title>S_Error_Xs_N_D@2x</title>
  <path class="cls-1" d="M14.2,19.664a0.319,0.319,0,0,1-.3.336H12.1a0.319,0.319,0,0,1-.3-0.336V17.944a0.319,0.319,0,0,1,.3-0.336H13.9a0.319,0.319,0,0,1,.3.336v1.719Zm0-3.953a0.319,0.319,0,0,1-.3.336H12.1a0.319,0.319,0,0,1-.3-0.336V7.992a0.319,0.319,0,0,1,.3-0.336H13.9a0.319,0.319,0,0,1,.3.336V15.71Z"/>
  <path class="red" d="M22.995,20.542l0-.006L13.893,2.522a0.992,0.992,0,0,0-1.791.009L3.008,20.525l0,0.007A0.986,0.986,0,0,0,3.9,21.958l18.172,0a1.011,1.011,0,0,0,1.019-1A1,1,0,0,0,22.995,20.542Zm-8.8-.879a0.319,0.319,0,0,1-.3.336H12.1a0.319,0.319,0,0,1-.3-0.336V17.944a0.319,0.319,0,0,1,.3-0.336H13.9a0.319,0.319,0,0,1,.3.336v1.719Zm0-3.953a0.319,0.319,0,0,1-.3.336H12.1a0.319,0.319,0,0,1-.3-0.336V7.992a0.319,0.319,0,0,1,.3-0.336H13.9a0.319,0.319,0,0,1,.3.336V15.71Z"/>
  </svg>