<svg id="S_Error_Sm_N_D_2x" data-name="S_Error_Sm_N_D@2x" xmlns="http://www.w3.org/2000/svg" width="32" height="32" viewBox="0 0 32 32">
  <defs>
    <style>
      .red {
        fill: #f53c3c;
      }

      
    </style>
  </defs>
  <title>S_Error_Sm_N_D@2x</title>
  <path class="red" d="M30.857,27.879l0.006-.01L17.327,1.093a1.475,1.475,0,0,0-2.663.014L1.147,27.853l0.006,0.01a1.465,1.465,0,0,0,1.32,2.119l27.011,0.005A1.5,1.5,0,0,0,31,28.5,1.479,1.479,0,0,0,30.857,27.879ZM18,25.5a0.5,0.5,0,0,1-.5.5h-3a0.5,0.5,0,0,1-.5-0.5v-3a0.5,0.5,0,0,1,.5-0.5h3a0.5,0.5,0,0,1,.5.5v3Zm0-6a0.5,0.5,0,0,1-.5.5h-3a0.5,0.5,0,0,1-.5-0.5V8.5A0.5,0.5,0,0,1,14.5,8h3a0.5,0.5,0,0,1,.5.5v11Z"/>
  </svg>