<svg id="S_Error_Md_N_D_2x" data-name="S_Error_Md_N_D@2x" xmlns="http://www.w3.org/2000/svg" width="36" height="36" viewBox="0 0 36 36">
  <defs>
    <style>
      .red {
        fill: #f53c3c;
      }

      
    </style>
  </defs>
  <title>S_Error_Md_N_D@2x</title>
  <path class="red" d="M34.714,31.55l0.007-.011L19.492,1.415a1.659,1.659,0,0,0-3,.015L1.291,31.521,1.3,31.532a1.649,1.649,0,0,0,1.485,2.384L33.17,33.923a1.691,1.691,0,0,0,1.7-1.674A1.663,1.663,0,0,0,34.714,31.55ZM20,29.438a0.534,0.534,0,0,1-.5.563h-3a0.534,0.534,0,0,1-.5-0.562V26.563A0.534,0.534,0,0,1,16.5,26h3a0.534,0.534,0,0,1,.5.563v2.875Zm0-8a0.534,0.534,0,0,1-.5.563h-3a0.534,0.534,0,0,1-.5-0.562V10.563A0.534,0.534,0,0,1,16.5,10h3a0.534,0.534,0,0,1,.5.563V21.438Z"/>
  </svg>