<svg id="S_ExtendedWorkspaceOptions_Lg_N_2x" data-name="S_ExtendedWorkspaceOptions_Lg_N@2x" xmlns="http://www.w3.org/2000/svg" width="44" height="36" viewBox="0 0 44 36">
  <defs>
    <style>
      .fill {
        fill-rule: evenodd;
        opacity: 0.65;
      }

      
    </style>
  </defs>
  <title>S_ExtendedWorkspaceOptions_Lg_N@2x</title>
  <path class="fill" d="M24,27.8a1.8,1.8,0,0,1-1.272-3.072L29.454,18l-6.727-6.728a1.8,1.8,0,1,1,2.545-2.545l8,8a1.8,1.8,0,0,1,0,2.545l-8,8A1.793,1.793,0,0,1,24,27.8Z"/>
  <path class="fill" d="M14,27.8a1.8,1.8,0,0,1-1.272-3.072L19.454,18l-6.727-6.728a1.8,1.8,0,0,1,2.545-2.545l8,8a1.8,1.8,0,0,1,0,2.545l-8,8A1.793,1.793,0,0,1,14,27.8Z"/>
  </svg>