<svg id="SP_FBColorSwapper_Xs_N_2x" data-name="SP_FBColorSwapper_Xs_N@2x" xmlns="http://www.w3.org/2000/svg" width="26" height="26" viewBox="0 0 26 26">
  <defs>
    <style>
      .fill {
        fill-rule: evenodd;
        opacity: 0.65;
      }

      
    </style>
  </defs>
  <title>SP_FBColorSwapper_Xs_N@2x</title>
  <path class="fill" d="M25.461,18H22V14a8,8,0,0,0-8-8H10V2.556A0.5,0.5,0,0,0,9.146,2.2L3.444,8l5.7,5.8A0.5,0.5,0,0,0,10,13.444V10h4a4,4,0,0,1,4,4v4H14.519a0.5,0.5,0,0,0-.354.854L20,24.519l5.815-5.665A0.5,0.5,0,0,0,25.461,18Z"/>
  </svg>