<svg id="S_Info_Xs_N_2x" data-name="S_Info_Xs_N@2x" xmlns="http://www.w3.org/2000/svg" width="26" height="26" viewBox="0 0 26 26">
  <defs>
    <style>
      .fill {
        fill-rule: evenodd;
        opacity: 0.65;
      }

      
    </style>
  </defs>
  <title>S_Info_Xs_N@2x</title>
  <path class="fill" d="M12,0.241A11.76,11.76,0,1,0,23.761,12,11.76,11.76,0,0,0,12,.241Zm-0.037,3.2A2.467,2.467,0,0,1,14.564,6a2.419,2.419,0,0,1-2.6,2.6A2.456,2.456,0,0,1,9.364,6,2.466,2.466,0,0,1,11.964,3.437ZM14.833,20H9.253a1.133,1.133,0,0,1-1.167-1,1.132,1.132,0,0,1,1.167-1H10V12H9.21a1.133,1.133,0,0,1-1.167-1A1.132,1.132,0,0,1,9.21,10H13.6a0.4,0.4,0,0,1,.4.4V18h0.833A1.132,1.132,0,0,1,16,19,1.133,1.133,0,0,1,14.833,20Z"/>
  </svg>