<svg id="S_Info_Xl_N_2x" data-name="S_Info_Xl_N@2x" xmlns="http://www.w3.org/2000/svg" width="64" height="64" viewBox="0 0 64 64">
  <defs>
    <style>
      .fill {
        fill-rule: evenodd;
        opacity: 0.65;
      }

      
    </style>
  </defs>
  <title>S_Info_Xl_N@2x</title>
  <path class="fill" d="M32,8A24,24,0,1,1,8,32,24.027,24.027,0,0,1,32,8Zm0-4A28,28,0,1,0,60,32,28,28,0,0,0,32,4Z"/>
  <circle class="fill" cx="32" cy="20" r="4.3"/>
  <path class="fill" d="M36.667,44H36V28.8a0.8,0.8,0,0,0-.8-0.8H27.333S25,28.064,25,30s2.333,2,2.333,2H28V44H27.333S25,44.064,25,46s2.333,2,2.333,2h9.334S39,47.935,39,46,36.667,44,36.667,44Z"/>
  </svg>