<svg id="S_Pickwhip_Xs_N_2x" data-name="S_Pickwhip_Xs_N@2x" xmlns="http://www.w3.org/2000/svg" width="26" height="26" viewBox="0 0 26 26">
  <defs>
    <style>
      .fill {
        fill-rule: evenodd;
        opacity: 0.65;
      }

      
    </style>
  </defs>
  <title>S_Pickwhip_Xs_N@2x</title>
  <path class="fill" d="M22.341,4.106l-0.674.449a0.5,0.5,0,0,0-.167.638,11.09,11.09,0,0,1-8.434,15.8,8.322,8.322,0,0,1-9.651-7.511,8.11,8.11,0,0,1,7.155-8.525A5.209,5.209,0,0,1,16.6,9.88,5.1,5.1,0,0,1,11.7,15.1,2.206,2.206,0,0,1,9.4,13.122a2.1,2.1,0,0,1,1.688-2.181,0.5,0.5,0,0,0,.408-0.487V9.64a0.5,0.5,0,0,0-.567-0.5,3.906,3.906,0,0,0-3.325,4.12,4.059,4.059,0,0,0,4.323,3.626,6.909,6.909,0,0,0,6.454-7.354A7.12,7.12,0,0,0,10.157,3.19,9.9,9.9,0,0,0,12.31,22.875,12.893,12.893,0,0,0,23.064,4.291,0.5,0.5,0,0,0,22.341,4.106Z"/>
  </svg>