<svg id="S_SearchMagnifyDropDown_Wi_N_2x" data-name="S_SearchMagnifyDropDown_Wi_N@2x" xmlns="http://www.w3.org/2000/svg" width="40" height="26" viewBox="0 0 40 26">
  <defs>
    <style>
      .fill {
        fill-rule: evenodd;
        opacity: 0.65;
      }

      
    </style>
  </defs>
  <title>S_SearchMagnifyDropDown_Wi_N@2x</title>
  <path class="fill" d="M35.5,16h-11a0.5,0.5,0,0,0-.354.854L30,22l5.853-5.146A0.5,0.5,0,0,0,35.5,16Z"/>
  <path class="fill" d="M16,2A7.995,7.995,0,0,0,9.751,14.988L2.507,22.232a0.5,0.5,0,0,0,0,.707l0.707,0.707a0.5,0.5,0,0,0,.707,0l7.266-7.266A8,8,0,1,0,16,2Zm0,14a6,6,0,1,1,6-6A6,6,0,0,1,16,16Z"/>
  </svg>