<svg id="S_SearchStop_14x14_N_2x" data-name="S_SearchStop_14x14_N@2x" xmlns="http://www.w3.org/2000/svg" width="28" height="28" viewBox="0 0 28 28">
  <defs>
    <style>
      .fill {
        fill-rule: evenodd;
        opacity: 0.65;
      }

      
    </style>
  </defs>
  <title>S_SearchStop_14x14_N@2x</title>
  <path class="fill" d="M20,2H8A6,6,0,0,0,2,8V20a6,6,0,0,0,6,6H20a6,6,0,0,0,6-6V8A6,6,0,0,0,20,2Zm0.354,17.647-0.707.707a1,1,0,0,1-1.414,0L14,16.121,9.768,20.354a1,1,0,0,1-1.414,0l-0.707-.707a1,1,0,0,1,0-1.414L11.879,14,7.646,9.768a1,1,0,0,1,0-1.414l0.707-.707a1,1,0,0,1,1.414,0L14,11.879l4.232-4.232a1,1,0,0,1,1.414,0l0.707,0.707a1,1,0,0,1,0,1.414L16.121,14l4.232,4.232A1,1,0,0,1,20.354,19.647Z"/>
  </svg>