<svg id="S_UnconstrainedProportions_Sm_N_2x" data-name="S_UnconstrainedProportions_Sm_N@2x" xmlns="http://www.w3.org/2000/svg" width="32" height="32" viewBox="0 0 32 32">
  <defs>
    <style>
      .fill {
        fill-rule: evenodd;
        opacity: 0.65;
      }

      
    </style>
  </defs>
  <title>S_UnconstrainedProportions_Sm_N@2x</title>
  <path class="fill" d="M14.062,19H8a3,3,0,0,1,0-6H8.062l-2.47-2.47A5.985,5.985,0,0,0,8,22h7a5.935,5.935,0,0,0,1.783-.278Z"/>
  <rect class="fill" x="14.662" y="-1.123" width="2.799" height="33.5" rx="0.5" ry="0.5" transform="translate(-6.345 15.934) rotate(-44.999)"/>
  <path class="fill" d="M18.809,13H24a2.988,2.988,0,0,1,.7,5.9l2.284,2.284A5.985,5.985,0,0,0,24,10H17a5.8,5.8,0,0,0-1.078.114Z"/>
  </svg>