<svg id="S_PoweredByXMP_105x15_N_D_2x" data-name="S_PoweredByXMP_105x15_N_D@2x" xmlns="http://www.w3.org/2000/svg" width="210" height="30" viewBox="0 0 210 30">
  <defs>
    <style>
      .fill {
        fill: #fff;
        fill-rule: evenodd;
        opacity: 0.65;
      }

      .cls-1 {
        fill: #2d8ceb;
      }

      
    </style>
  </defs>
  <title>S_PoweredByXMP_105x15_N_D@2x</title>
  <path class="fill" d="M18,8.667a13.564,13.564,0,0,1,2.595-.242,4.41,4.41,0,0,1,3.133.983,3.483,3.483,0,0,1,1,2.6,3.885,3.885,0,0,1-.852,2.614,4.413,4.413,0,0,1-3.393,1.371,5,5,0,0,1-.963-0.073V21H18V8.667Zm1.522,6.006a3.493,3.493,0,0,0,.944.091A2.476,2.476,0,0,0,23.209,12.1,2.277,2.277,0,0,0,20.671,9.65a5.367,5.367,0,0,0-1.149.109v4.914Z"/>
  <path class="fill" d="M29.623,21.161c-2.021,0-3.614-1.612-3.614-4.616,0-3.132,1.724-4.691,3.745-4.691,2.078,0,3.6,1.688,3.6,4.6,0,3.392-1.966,4.709-3.706,4.709H29.623Zm0.057-1.187c1.388,0,2.095-1.778,2.095-3.483,0-1.448-.5-3.449-2.095-3.449s-2.132,1.947-2.132,3.467c0,1.724.683,3.465,2.114,3.465h0.018Z"/>
  <path class="fill" d="M35.851,12.023l1.041,4.467c0.222,0.981.426,1.945,0.574,2.871h0.057c0.165-.907.426-1.927,0.684-2.854l1.243-4.485H40.69l1.187,4.393c0.26,1.037.5,1.983,0.686,2.945h0.055a28.425,28.425,0,0,1,.6-2.91l1.055-4.429h1.52L43.213,21H41.878L40.69,16.675a25.993,25.993,0,0,1-.648-2.836H40.005a26.2,26.2,0,0,1-.686,2.873L38.076,21H36.724l-2.448-8.973h1.575Z"/>
  <path class="fill" d="M48.2,16.712c0.018,2.485,1.262,3.226,2.6,3.226a4.839,4.839,0,0,0,1.983-.389l0.259,1.093a5.872,5.872,0,0,1-2.483.5c-2.449,0-3.839-1.8-3.839-4.522,0-2.8,1.428-4.766,3.634-4.766,2.373,0,3.114,2.244,3.114,4.079,0,0.334-.019.575-0.037,0.779H48.2ZM52,15.6c0.017-1.409-.539-2.614-1.8-2.614-1.3,0-1.891,1.428-1.983,2.614H52Z"/>
  <path class="fill" d="M55.242,14.581c0-.909-0.036-1.816-0.071-2.558h1.352l0.055,1.594h0.057a2.423,2.423,0,0,1,2.188-1.762c0.147,0,.257.02,0.372,0.02v1.5a2.846,2.846,0,0,0-.408-0.017,2.109,2.109,0,0,0-1.967,1.964,5.442,5.442,0,0,0-.057.8V21H55.242V14.581Z"/>
  <path class="fill" d="M61.528,16.712c0.018,2.485,1.259,3.226,2.595,3.226a4.862,4.862,0,0,0,1.986-.389l0.259,1.093a5.892,5.892,0,0,1-2.485.5c-2.447,0-3.838-1.8-3.838-4.522,0-2.8,1.428-4.766,3.632-4.766,2.375,0,3.115,2.244,3.115,4.079,0,0.334-.018.575-0.035,0.779h-5.23Zm3.8-1.113c0.019-1.409-.538-2.614-1.8-2.614-1.3,0-1.891,1.428-1.985,2.614h3.782Z"/>
  <path class="fill" d="M75.155,8V18.77c0,0.686.037,1.65,0.073,2.226H73.892L73.8,19.64H73.744a2.686,2.686,0,0,1-2.463,1.521c-1.84,0-3.227-1.742-3.227-4.578,0-3.079,1.594-4.729,3.375-4.729a2.306,2.306,0,0,1,2.168,1.2h0.037V8h1.521Zm-1.521,7.544a3.865,3.865,0,0,0-.037-0.649,2.019,2.019,0,0,0-1.856-1.8c-1.444,0-2.148,1.558-2.148,3.449,0,1.855.7,3.355,2.1,3.355a1.96,1.96,0,0,0,1.871-1.724,2.382,2.382,0,0,0,.073-0.647V15.544Z"/>
  <path class="fill" d="M80.995,8.686a11.762,11.762,0,0,1,2.518-.261,4.433,4.433,0,0,1,3.1.892,2.721,2.721,0,0,1,.927,2.168,2.91,2.91,0,0,1-2.021,2.762v0.038a3.142,3.142,0,0,1,2.45,3.169,3.414,3.414,0,0,1-.984,2.466,5.085,5.085,0,0,1-3.8,1.169,17.4,17.4,0,0,1-2.185-.131V8.686Zm1.52,5.115h1.074a2.208,2.208,0,0,0,2.429-2.15c0-1.3-.817-2.039-2.409-2.039a4.668,4.668,0,0,0-1.094.094v4.1Zm0,6.006a4.959,4.959,0,0,0,1.037.076c1.576,0,2.816-.743,2.816-2.448s-1.332-2.483-2.873-2.483H82.515v4.855Z"/>
  <path class="fill" d="M90.446,12.023l1.578,5.227c0.183,0.649.352,1.28,0.482,1.837h0.037c0.129-.52.3-1.207,0.482-1.856l1.408-5.207H96.01l-1.967,6.061c-0.854,2.67-1.556,4.542-2.632,5.71A4.573,4.573,0,0,1,89.6,25l-0.467-1.281a4.479,4.479,0,0,0,1.356-.963,6,6,0,0,0,1.074-1.668,1.168,1.168,0,0,0,.113-0.427,1.075,1.075,0,0,0-.077-0.371l-2.776-8.267h1.628Z"/>
  <path class="cls-1" d="M107.647,10.56l0.035,0.05L99.85,21.3h7.726l4.294-6.791,4.289,6.791h7.73L116.21,10.825Zm8.739-.4,7.18-9.629h-7.727L111.87,6.788,107.9,0.534H100.17l7.261,9.737Zm44.8-8.563Q159.429,0,155.705,0a11.312,11.312,0,0,0-4.535.828,5.394,5.394,0,0,0-2.765,2.487h-0.1A4.388,4.388,0,0,0,145.969.847,9.9,9.9,0,0,0,141.639,0a12.552,12.552,0,0,0-4.159.615,8.2,8.2,0,0,0-3.143,2.044h-0.12V0.534H127.1v9.5l7.437-.09V7.636a3.279,3.279,0,0,1,1.047-2.7,4.355,4.355,0,0,1,2.819-.849,3,3,0,0,1,2.227.7,2.768,2.768,0,0,1,.673,2.008V9.864l7.436-.088V7.636a3.284,3.284,0,0,1,1.044-2.7,4.355,4.355,0,0,1,2.821-.849,3.006,3.006,0,0,1,2.227.7,2.775,2.775,0,0,1,.672,2.008V9.7l7.436-.091V6.213A5.917,5.917,0,0,0,161.185,1.6ZM141.3,21.3h7.436V11.819l-7.436-.227V21.3Zm-14.2,0h7.437V11.385l-7.437-.229V21.3Zm28.4,0h7.436V12.256l-7.436-.23V21.3ZM187.86,2.563Q185.715,0,181.151,0a9.861,9.861,0,0,0-3.783.636,7.323,7.323,0,0,0-2.766,2.1h-0.121v-2.2h-7.112V9.553L178.9,9.415l-4.249-5h5.1l6.126,6.655-6.149,6.655-5.1.01,4.278-4.991-11.538-.354V28H174.8V19.362h0.132a7.18,7.18,0,0,0,2.655,1.785,10.188,10.188,0,0,0,3.568.555q4.561,0,6.7-2.505t2.148-8.288Q190.01,5.127,187.86,2.563Z"/>
  </svg>