<svg id="S_PoweredByXMP_105x15_N_D_3to2x" data-name="S_PoweredByXMP_105x15_N_D@3to2x" xmlns="http://www.w3.org/2000/svg" width="158" height="23" viewBox="0 0 158 23">
  <defs>
    <style>
      .fill {
        fill: #fff;
        fill-rule: evenodd;
        opacity: 0.65;
      }

      .cls-1 {
        fill: #2d8ceb;
      }

      
    </style>
  </defs>
  <title>S_PoweredByXMP_105x15_N_D@3to2x</title>
  <path class="fill" d="M17.636,7.176a9.575,9.575,0,0,1,1.832-.171,3.113,3.113,0,0,1,2.211.694,2.459,2.459,0,0,1,.707,1.832,2.742,2.742,0,0,1-.6,1.845,3.115,3.115,0,0,1-2.395.968,3.529,3.529,0,0,1-.68-0.051v3.586H17.636v-8.7Zm1.074,4.24a2.466,2.466,0,0,0,.666.064A1.748,1.748,0,0,0,21.312,9.6,1.607,1.607,0,0,0,19.521,7.87a3.789,3.789,0,0,0-.811.077v3.469Z"/>
  <path class="fill" d="M25.84,16c-1.426,0-2.551-1.138-2.551-3.258,0-2.211,1.217-3.311,2.644-3.311,1.467,0,2.539,1.191,2.539,3.245,0,2.394-1.388,3.324-2.616,3.324H25.84Zm0.041-.838c0.98,0,1.479-1.255,1.479-2.458,0-1.022-.354-2.435-1.479-2.435s-1.5,1.374-1.5,2.447c0,1.217.482,2.446,1.492,2.446h0.013Z"/>
  <path class="fill" d="M30.637,9.645L31.371,12.8c0.157,0.692.3,1.373,0.4,2.027h0.04c0.116-.64.3-1.36,0.483-2.014l0.877-3.166h0.876l0.838,3.1c0.183,0.732.354,1.4,0.484,2.079h0.039c0.093-.654.236-1.32,0.42-2.154l0.745-3.126,1.073,0.1-1.818,6.334H34.891l-0.838-3.05a18.348,18.348,0,0,1-.458-2H33.569a18.5,18.5,0,0,1-.485,2.028l-0.877,3.024H31.253L29.525,9.645h1.112Z"/>
  <path class="fill" d="M39.753,12.855c0.013,1.754.891,2.277,1.833,2.277a3.416,3.416,0,0,0,1.4-.275l0.183,0.772a4.145,4.145,0,0,1-1.753.353c-1.729,0-2.71-1.269-2.71-3.192,0-1.977,1.008-3.364,2.565-3.364,1.675,0,2.2,1.584,2.2,2.879,0,0.235-.013.406-0.026,0.55h-3.69Zm2.684-.785c0.012-.995-0.38-1.845-1.271-1.845-0.916,0-1.334,1.008-1.4,1.845h2.671Z"/>
  <path class="fill" d="M44.424,11.351c0-.642-0.025-1.282-0.05-1.805h0.954l0.039,1.125h0.04a1.71,1.71,0,0,1,1.545-1.244c0.1,0,.181.014,0.262,0.014V10.5a2.009,2.009,0,0,0-.288-0.012,1.489,1.489,0,0,0-1.388,1.386,3.842,3.842,0,0,0-.04.563v3.443H44.424V11.351Z"/>
  <path class="fill" d="M48.761,12.855c0.013,1.754.889,2.277,1.832,2.277a3.432,3.432,0,0,0,1.4-.275l0.183,0.772a4.159,4.159,0,0,1-1.754.353c-1.727,0-2.709-1.269-2.709-3.192,0-1.977,1.008-3.364,2.564-3.364,1.676,0,2.2,1.584,2.2,2.879,0,0.235-.013.406-0.024,0.55H48.761Zm2.683-.785c0.013-.995-0.38-1.845-1.269-1.845-0.916,0-1.335,1.008-1.4,1.845h2.67Z"/>
  <path class="fill" d="M58.48,6.705v7.6c0,0.484.026,1.165,0.052,1.571H57.589l-0.064-.957H57.484A1.9,1.9,0,0,1,55.746,16c-1.3,0-2.278-1.229-2.278-3.231,0-2.173,1.125-3.338,2.383-3.338a1.628,1.628,0,0,1,1.53.85h0.026V6.705H58.48Zm-1.074,5.325a2.729,2.729,0,0,0-.026-0.458,1.425,1.425,0,0,0-1.31-1.269c-1.019,0-1.516,1.1-1.516,2.434,0,1.309.5,2.368,1.48,2.368a1.384,1.384,0,0,0,1.321-1.217,1.681,1.681,0,0,0,.052-0.457v-1.4Z"/>
  <path class="fill" d="M61.8,7.189a8.3,8.3,0,0,1,1.778-.184,3.129,3.129,0,0,1,2.185.63,1.921,1.921,0,0,1,.655,1.53,2.054,2.054,0,0,1-1.427,1.949v0.027a2.218,2.218,0,0,1,1.73,2.237,2.41,2.41,0,0,1-.695,1.741,3.589,3.589,0,0,1-2.683.825,12.285,12.285,0,0,1-1.542-.092V7.189ZM62.875,10.8h0.758a1.559,1.559,0,0,0,1.715-1.518,1.423,1.423,0,0,0-1.7-1.439,3.3,3.3,0,0,0-.772.066V10.8Zm0,4.24a3.5,3.5,0,0,0,.732.054A1.719,1.719,0,0,0,65.6,13.366a1.781,1.781,0,0,0-2.028-1.753H62.875V15.04Z"/>
  <path class="fill" d="M68.774,9.545l1.114,3.689c0.129,0.458.248,0.9,0.34,1.3h0.026c0.091-.367.209-0.852,0.34-1.31l0.994-3.676H72.7l-1.388,4.278a11.065,11.065,0,0,1-1.858,4.031,3.228,3.228,0,0,1-1.282.851l-0.33-.9a3.162,3.162,0,0,0,.957-0.68,4.236,4.236,0,0,0,.758-1.177,0.825,0.825,0,0,0,.08-0.3,0.759,0.759,0,0,0-.054-0.262l-1.96-5.836h1.149Z"/>
  <path class="cls-1" d="M80.17,8.543l0.025,0.035L74.6,16.214h5.519l3.067-4.851,3.063,4.851H91.77L86.286,8.732Zm6.242-.283,5.129-6.878h-5.52L83.186,5.849,80.347,1.382H74.829l5.186,6.955Zm32-6.116A5.674,5.674,0,0,0,114.5,1a8.08,8.08,0,0,0-3.239.592,3.853,3.853,0,0,0-1.975,1.776h-0.07a3.134,3.134,0,0,0-1.67-1.763A7.071,7.071,0,0,0,104.45,1a8.966,8.966,0,0,0-2.97.439A5.857,5.857,0,0,0,99.234,2.9H99.149V1.382H94.066V8.168L99.378,8.1V6.454a2.342,2.342,0,0,1,.748-1.93,3.111,3.111,0,0,1,2.014-.606,2.145,2.145,0,0,1,1.59.5,1.977,1.977,0,0,1,.481,1.434v2.2l5.312-.063V6.454a2.346,2.346,0,0,1,.746-1.93,3.11,3.11,0,0,1,2.015-.606,2.147,2.147,0,0,1,1.591.5,1.982,1.982,0,0,1,.48,1.434V7.925l5.311-.065V5.438A4.227,4.227,0,0,0,118.411,2.143Zm-14.2,14.071h5.312V9.442l-5.312-.162v6.935Zm-10.145,0h5.312V9.132l-5.312-.163v7.245Zm20.288,0h5.311V9.754l-5.311-.164v6.624Zm23.11-13.383A5.9,5.9,0,0,0,132.672,1a7.044,7.044,0,0,0-2.7.454,5.231,5.231,0,0,0-1.976,1.5h-0.086V1.382h-5.08V7.823l8.234-.1-3.035-3.571h3.645l4.375,4.753-4.392,4.753-3.642.007,3.056-3.565-8.242-.253V21h5.312V14.83h0.094a5.129,5.129,0,0,0,1.9,1.275,7.277,7.277,0,0,0,2.548.4,5.964,5.964,0,0,0,4.788-1.789Q139,12.922,139,8.792T137.464,2.831Z"/>
  </svg>