<svg id="SP_Unlink_Sm_N_2x" data-name="SP_Unlink_Sm_N@2x" xmlns="http://www.w3.org/2000/svg" width="32" height="32" viewBox="0 0 32 32">
  <defs>
    <style>
      .fill {
        fill: #fff;
        fill-rule: evenodd;
        opacity: 0.65;
      }

      
    </style>
  </defs>
  <title>SP_Unlink_Sm_N@2x</title>
  <path class="fill" d="M26.834,28.542l1.272-1.272a0.5,0.5,0,0,0,0-.707L5.126,3.582a0.5,0.5,0,0,0-.707,0L3.146,4.854a0.5,0.5,0,0,0,0,.707L26.127,28.542A0.5,0.5,0,0,0,26.834,28.542ZM10.355,5.983A6,6,0,0,1,22,8v7a5.975,5.975,0,0,1-.423,2.2L19,14.628V8a3,3,0,0,0-6,0V8.628ZM21.387,26.63A6,6,0,0,1,10,24V17a5.99,5.99,0,0,1,.209-1.549L13,18.243V24a2.993,2.993,0,0,0,5.978.22Z" transform="translate(0)"/>
  </svg>