<svg id="Layer_1" data-name="Layer 1" xmlns="http://www.w3.org/2000/svg" viewBox="0 0 39.67 15"><defs><style>.cls-1{fill:#0f6ad8;}.cls-2{fill:#fff;}</style></defs><title>cues</title><path class="cls-1" d="M176,268.22v4.39a0.73,0.73,0,0,1-.36.63l-1.95,1.13a0.73,0.73,0,0,0,0,1.26l1.95,1.13a0.73,0.73,0,0,1,.36.63v4.39a0.73,0.73,0,0,0,.73.73h35.55a0.73,0.73,0,0,0,.73-0.73V268.22a0.73,0.73,0,0,0-.73-0.73H176.74A0.73,0.73,0,0,0,176,268.22Z" transform="translate(-173.34 -267.5)"/><path class="cls-2" d="M186.55,278.31c0,0.06,0,.08-0.06.1a4.23,4.23,0,0,1-1.53.22,3.3,3.3,0,0,1-3.46-3.52,3.82,3.82,0,0,1,5-3.39,0.11,0.11,0,0,1,.06.13v0.88c0,0.07,0,.07-0.1.06a3.25,3.25,0,0,0-1.29-.21,2.5,2.5,0,0,0,0,5,3.54,3.54,0,0,0,1.3-.2c0.07,0,.08,0,0.08.06v0.87Z" transform="translate(-173.34 -267.5)"/><path class="cls-2" d="M193.24,277a9.16,9.16,0,0,0,.08,1.4,0.07,0.07,0,0,1-.08.08h-0.9a0.1,0.1,0,0,1-.11-0.07,3.75,3.75,0,0,1-.08-0.6,2.76,2.76,0,0,1-2,.81c-1.19,0-2.31-.6-2.31-2.63v-4.23c0-.07,0-0.08.1-0.08h1c0.06,0,.07,0,0.07.08v4.09a1.47,1.47,0,0,0,1.49,1.74,2.1,2.1,0,0,0,1.63-.71v-5.11a0.08,0.08,0,0,1,.1-0.08h1c0.08,0,.08,0,0.08.08V277Z" transform="translate(-173.34 -267.5)"/><path class="cls-2" d="M195.9,275.23a2.18,2.18,0,0,0,2.34,2.38,3.94,3.94,0,0,0,1.75-.38s0.07,0,.07.06v0.8a0.14,0.14,0,0,1-.07.14,4.29,4.29,0,0,1-2,.41c-2.42,0-3.29-1.78-3.29-3.49,0-2,1.15-3.6,3.1-3.6a2.67,2.67,0,0,1,2.73,2.82,3.82,3.82,0,0,1-.06.73,0.09,0.09,0,0,1-.1.08,11.53,11.53,0,0,1-1.44.06H195.9Zm2.62-.87a5.61,5.61,0,0,0,.9,0,0.55,0.55,0,0,0,0-.15,1.63,1.63,0,0,0-1.65-1.67,1.91,1.91,0,0,0-1.86,1.85h2.61Z" transform="translate(-173.34 -267.5)"/><path class="cls-2" d="M204.05,272.51c-0.92,0-1.23.45-1.23,0.87s0.25,0.71,1.3,1.13c1.42,0.55,2,1.12,2,2.12,0,1.29-1.05,2-2.51,2a4,4,0,0,1-1.88-.41,0.13,0.13,0,0,1-.07-0.13v-0.94c0-.07,0-0.1.08-0.07a3.39,3.39,0,0,0,1.89.56c0.9,0,1.33-.39,1.33-0.91s-0.31-.83-1.27-1.2c-1.4-.53-2-1.11-2-2.1s0.85-1.89,2.38-1.89a3.57,3.57,0,0,1,1.64.31,0.12,0.12,0,0,1,.07.14v0.85c0,0.07,0,.11-0.11.07A3.41,3.41,0,0,0,204.05,272.51Z" transform="translate(-173.34 -267.5)"/></svg>