<svg id="Layer_1" data-name="Layer 1" xmlns="http://www.w3.org/2000/svg" viewBox="0 0 55 55"><defs><style>.cls-1{fill:#3f3f3f;}.cls-2{fill:#23befa;}</style></defs><title>LearnPanelIcons_Alt</title><path class="cls-1" d="M27.5,0A27.59,27.59,0,0,0,0,27.5,27.1,27.1,0,0,0,3.28,40.39c0.29,0.53.59,1,.91,1.56,0.14,0.23.28,0.48,0.43,0.7s0.4,0.54.59,0.81,0.45,0.7.7,1,0.64,0.75,1,1.13l0.27,0.32c0.3,0.33.6,0.65,0.91,1A27.63,27.63,0,0,0,12,50.27h0.16l0.11,0.11H12.3l0.11,0.05h0.05A27.3,27.3,0,0,0,27.5,55a27.5,27.5,0,0,0,0-55h0Z"/><path class="cls-2" d="M27.5,1.67A25.84,25.84,0,1,1,14.23,49.58a15.23,15.23,0,0,0,4.19-5,12.91,12.91,0,0,1,1.88-2.52,3,3,0,0,1,2.2-1h7.25a3.23,3.23,0,0,0,2.47-1A3.49,3.49,0,0,0,33,37.81a3.53,3.53,0,0,0-.32-1.56H48.29a0.86,0.86,0,0,0,.86-0.86V18a0.86,0.86,0,0,0-.86-0.86H31.1a3.39,3.39,0,0,0,.27-1.29,3.15,3.15,0,0,0-.7-2,2.76,2.76,0,0,0-2.15-1H16.81a0.85,0.85,0,0,0-.64.21,4.81,4.81,0,0,0-.43.32c-0.31.24-.7,0.52-1.13,0.91-0.24.22-.54,0.6-0.81,0.86a8.81,8.81,0,0,0-1.13-.05,3.76,3.76,0,0,0-2.79.91,4.19,4.19,0,0,0-1,3,8.21,8.21,0,0,0,.05,1.34c-0.11.13-.22,0.3-0.32,0.43a11,11,0,0,0-1.88,3L2.9,35.29A25.4,25.4,0,0,1,1.67,27.5,25.91,25.91,0,0,1,27.5,1.67h0Z"/><path class="cls-2" d="M17,14.61H28.52a1,1,0,0,1,.86.38,1.69,1.69,0,0,1,0,1.83,1,1,0,0,1-.86.38H19.6a0.86,0.86,0,0,0-.32.11A8.17,8.17,0,0,0,15,19.93a9.88,9.88,0,0,0-2.63,6c-0.18,3,.28,5.61,1.61,7.47a6.51,6.51,0,0,0,.64.75,0.86,0.86,0,0,0,.38.32,7.56,7.56,0,0,0,4.67,1.77l0.11,0.05H30.08a1,1,0,0,1,.86.43,1.88,1.88,0,0,1,.38,1.13,1.78,1.78,0,0,1-.38,1.13,1.42,1.42,0,0,1-1.18.43H22.5a4.87,4.87,0,0,0-3.38,1.4A14.08,14.08,0,0,0,17,43.67c-1.21,1.95-2.47,3.85-4.46,4.83-0.67-.48-1.31-1-1.93-1.56l-0.21-.21c-0.33-.3-0.65-0.6-1-0.91a26,26,0,0,1-5.48-8.06L8.38,24.33a10.84,10.84,0,0,1,1.56-2.47c0.83-1.06,1.91-2.28,3-3.38s2.09-2.11,2.9-2.85c0.41-.37.77-0.67,1-0.86L17,14.61h0Z"/><path class="cls-1" d="M12,16.92l-0.38.38c-0.33.35-.63,0.71-1,1.07a2.05,2.05,0,0,1,.43-1.07A2,2,0,0,1,12,16.92Z"/><path class="cls-2" d="M20.62,18.91h26.8V34.54H20.62V23.37a0.89,0.89,0,0,0,0-.43v-4Z"/><path class="cls-2" d="M18.91,19.18v3.33a6.18,6.18,0,0,0-3.33,4,21.2,21.2,0,0,0-.86,4.62A12,12,0,0,1,14.07,26a8.33,8.33,0,0,1,2.15-4.94A7,7,0,0,1,18.91,19.18Z"/><path class="cls-1" d="M22.45,20.63a0.87,0.87,0,1,0,.27,1.72H45.22a0.86,0.86,0,1,0,0-1.72H22.45Z"/><path class="cls-1" d="M22.56,24l-0.11.05a0.87,0.87,0,1,0,.27,1.72H45.22a0.86,0.86,0,1,0,0-1.72H22.72Z"/><path class="cls-2" d="M18.91,24.55v9.88a5.29,5.29,0,0,1-2.63-1.13,26.28,26.28,0,0,1,.91-6.18A4.73,4.73,0,0,1,18.91,24.55Z"/><path class="cls-1" d="M22.45,27.5a0.87,0.87,0,1,0,.27,1.72H45.22a0.86,0.86,0,1,0,0-1.72H22.45Z"/><path class="cls-1" d="M22.61,30.89l-0.11.05a0.87,0.87,0,1,0,.21,1.72H45.22a0.86,0.86,0,1,0,0-1.72H22.72Z"/></svg>