<svg id="Layer_1" data-name="Layer 1" xmlns="http://www.w3.org/2000/svg" viewBox="0 0 55 55"><defs><style>.cls-1{fill:#3f3f3f;}.cls-2{fill:#fa5555;}</style></defs><title>LearnPanelIcons_Alt</title><path class="cls-1" d="M28.81,0h-2.7l-1.33.14A39.2,39.2,0,0,0,7.48,6.38,1,1,0,0,0,7,7.3c0,6.52.08,13,0,19.57a24.09,24.09,0,0,0,4.25,14c4.08,6.09,9.62,10.55,16,14.09a0.56,0.56,0,0,0,.27.06,0.7,0.7,0,0,0,.31-0.07,43.45,43.45,0,0,0,15.35-13A24.26,24.26,0,0,0,48,27.72C48,21,48,14.21,48,7.46a1.16,1.16,0,0,0-.68-1.18C45.22,5.17,43.18,4,41,3A32.45,32.45,0,0,0,31.54.32L28.81,0h0Z"/><path class="cls-2" d="M28.63,3.13l0.65,0.07,1.86,0.22a29.41,29.41,0,0,1,8.58,2.41c1.36,0.62,2.68,1.34,4.08,2.1l1.06,0.57c0,2.76,0,5.54,0,8.23,0,3.59,0,7.31,0,11A21,21,0,0,1,40.6,40.1a39.41,39.41,0,0,1-13.07,11.4A41,41,0,0,1,13.86,39.1,20.87,20.87,0,0,1,10.15,26.9c0.06-4.93,0-9.93,0-14.77q0-1.85,0-3.71a35.45,35.45,0,0,1,15-5.16l0.9-.1,0.28,0h2.35"/><path class="cls-1" d="M26.55,34.8l-2,2-8.49-8.49,2-2Z"/><rect class="cls-1" x="13.87" y="32.41" width="10.41" height="2.67" transform="translate(-18.28 23.37) rotate(-44.99)"/><polygon class="cls-1" points="32.83 24.38 39.64 17.57 41.22 11.65 35.46 13.39 28.65 20.2 32.83 24.38"/><rect class="cls-1" x="21.83" y="26.67" width="3.16" height="5.92" transform="translate(-14.09 25.23) rotate(-45.01)"/><path class="cls-1" d="M28.44,34.58l2,2,8.49-8.49-2-2Z"/><rect class="cls-1" x="34.59" y="28.32" width="2.67" height="10.41" transform="translate(-13.19 35.22) rotate(-45)"/><polygon class="cls-1" points="32.57 26.19 19.54 13.16 13.78 11.43 15.35 17.35 28.38 30.38 30.61 32.61 34.8 28.43 32.57 26.19"/></svg>