<svg id="Layer_1" data-name="Layer 1" xmlns="http://www.w3.org/2000/svg" viewBox="0 0 55 55"><defs><style>.cls-1{fill:#3f3f3f;}.cls-2{fill:#ffd746;}</style></defs><title>LearnPanelIcons_Alt</title><path class="cls-1" d="M52,44.82a8.91,8.91,0,0,0-3.79-3.5A12.3,12.3,0,0,0,42.69,40a8.17,8.17,0,0,1-4.83-1.47,4.68,4.68,0,0,1-1.29-1.41A3.07,3.07,0,0,1,36.18,36a12.12,12.12,0,0,0,2.41-1.76,11.76,11.76,0,0,0,3.7-7.87h0l0.84-15c0-.21,0-0.42,0-0.62A10.7,10.7,0,0,0,32.4,0H23.65A10.7,10.7,0,0,0,12.91,10.75c0,0.21,0,.42,0,0.63l0.83,15a11.77,11.77,0,0,0,3.7,7.87A12.14,12.14,0,0,0,19.88,36a3,3,0,0,1-.4,1.09,5.52,5.52,0,0,1-2.38,2A9.41,9.41,0,0,1,13,40a12.22,12.22,0,0,0-7.3,2.3A9.12,9.12,0,0,0,3.23,45a7.14,7.14,0,0,0-1,3.47V55H5.94V48.49a3.42,3.42,0,0,1,.55-1.62,5.81,5.81,0,0,1,2.45-2.14A9.07,9.07,0,0,1,13,43.8a12.62,12.62,0,0,0,7.28-2.18,8.55,8.55,0,0,0,2.41-2.55,7,7,0,0,0,.73-1.74,11.37,11.37,0,0,0,2.11.18h5a11.35,11.35,0,0,0,2.1-.18,7.05,7.05,0,0,0,.69,1.7,9.06,9.06,0,0,0,3.85,3.5,12.42,12.42,0,0,0,5.55,1.27,8.22,8.22,0,0,1,4.84,1.47,4.28,4.28,0,0,1,1.19,1.41,2.83,2.83,0,0,1,.31,1.5v6.2h3.75v-6.2A6.66,6.66,0,0,0,52,44.82Z"/><path class="cls-2" d="M25.53,33.75a8.14,8.14,0,0,1-8-7.55L16.74,12.39c2.35-.51,7.11-1.72,9.41-3.59a23.82,23.82,0,0,0,4.37-4.37s4.37,6.25,8.12,7.5a2.81,2.81,0,0,0,.68.14L38.55,26.21h0a8.14,8.14,0,0,1-8,7.54h-5Z"/><path class="cls-1" d="M23,26a5.57,5.57,0,0,0,5,2.79A5.57,5.57,0,0,0,33,26,14.12,14.12,0,0,1,23,26Z"/><rect class="cls-1" x="22.19" y="15" width="3.12" height="3.75"/><rect class="cls-1" x="30.94" y="15" width="3.12" height="3.75"/></svg>