<svg id="Layer_1" data-name="Layer 1" xmlns="http://www.w3.org/2000/svg" viewBox="0 0 55 55"><defs><style>.cls-1{fill:#3f3f3f;}.cls-2{fill:#28dcb9;}</style></defs><title>LearnPanelIcons_Alt</title><path class="cls-1" d="M48.53,49.86H6.6A6.65,6.65,0,0,1,0,43.26V19.64A6.65,6.65,0,0,1,6.6,13h6.26a0.9,0.9,0,0,0,.75-0.54l1.63-4.9a3.75,3.75,0,0,1,3.34-2.45H36.41a3.58,3.58,0,0,1,3.34,2.45l1.63,4.9a0.9,0.9,0,0,0,.75.54h6.26a6.65,6.65,0,0,1,6.6,6.6V43.26A6.41,6.41,0,0,1,48.53,49.86Z"/><path class="cls-2" d="M6.6,15.76a3.92,3.92,0,0,0-3.88,3.88V43.26A3.92,3.92,0,0,0,6.6,47.14H48.53a3.92,3.92,0,0,0,3.88-3.88V19.64a3.92,3.92,0,0,0-3.88-3.88H42.27a3.58,3.58,0,0,1-3.34-2.45L37.3,8.41a0.9,0.9,0,0,0-.75-0.54H18.65a0.9,0.9,0,0,0-.75.54l-1.63,5a3.75,3.75,0,0,1-3.34,2.45H6.6V15.76Z"/><path class="cls-1" d="M27.57,39.38a9.26,9.26,0,1,1,9.26-9.26A9.27,9.27,0,0,1,27.57,39.38Zm0-15.72a6.53,6.53,0,1,0,6.53,6.53A6.54,6.54,0,0,0,27.57,23.65Z"/><path class="cls-1" d="M27.57,44.62A14.5,14.5,0,1,1,42,30.12,14.51,14.51,0,0,1,27.57,44.62Zm0-26.2A11.74,11.74,0,1,0,39.34,30.12,11.78,11.78,0,0,0,27.57,18.41Z"/><path class="cls-1" d="M46.69,19.64a1.84,1.84,0,1,1-1.84,1.84,1.83,1.83,0,0,1,1.84-1.84m0-2a3.88,3.88,0,1,0,3.88,3.88,3.92,3.92,0,0,0-3.88-3.88h0Z"/></svg>